<svg width="155" height="40" viewBox="0 0 155 40" fill="none" xmlns="http://www.w3.org/2000/svg">
<g clip-path="url(#clip0_109_583)">
<g clip-path="url(#clip1_109_583)">
<path d="M15.399 22.228L14.46 24.412H13.543L17.234 15.862H18.249L21.94 24.412H20.99L20.062 22.228H15.399ZM15.738 21.409H19.712L17.725 16.79L15.738 21.409ZM27.994 24.412H27.142V21.016C27.142 19.935 26.574 19.247 25.526 19.247C25.024 19.247 24.609 19.421 24.281 19.782C23.954 20.131 23.79 20.568 23.79 21.092V24.412H22.938V18.581H23.779V19.651C24.237 18.864 24.903 18.471 25.788 18.471C27.186 18.471 27.994 19.41 27.994 20.808V24.412ZM32.68 16.495C32.68 16.134 32.963 15.851 33.313 15.851C33.673 15.851 33.957 16.134 33.957 16.495C33.957 16.844 33.673 17.128 33.313 17.128C32.963 17.128 32.68 16.844 32.68 16.495ZM33.75 18.581V24.412H32.887V18.581H33.75ZM40.726 24.412H39.874V21.016C39.874 19.935 39.307 19.247 38.258 19.247C37.756 19.247 37.341 19.421 37.013 19.782C36.686 20.131 36.522 20.568 36.522 21.092V24.412H35.67V18.581H36.511V19.651C36.97 18.864 37.636 18.471 38.52 18.471C39.918 18.471 40.726 19.41 40.726 20.808V24.412ZM42.362 16.495C42.362 16.134 42.646 15.851 42.996 15.851C43.356 15.851 43.64 16.134 43.64 16.495C43.64 16.844 43.356 17.128 42.996 17.128C42.646 17.128 42.362 16.844 42.362 16.495ZM43.432 18.581V24.412H42.57V18.581H43.432ZM47.395 24.455C46.292 24.455 45.746 23.942 45.746 22.905V19.334H44.665V18.58H45.746V16.899H46.587V18.58H48.061V19.334H46.587V22.883C46.587 23.429 46.903 23.702 47.537 23.702C47.766 23.702 47.941 23.691 48.061 23.658V24.368C47.875 24.422 47.646 24.455 47.395 24.455ZM49.293 16.495C49.293 16.134 49.577 15.851 49.927 15.851C50.287 15.851 50.571 16.134 50.571 16.495C50.571 16.844 50.287 17.128 49.927 17.128C49.577 17.128 49.293 16.844 49.293 16.495ZM50.364 18.581V24.412H49.501V18.581H50.364ZM54.184 21.048H55.8V20.655C55.8 19.705 55.309 19.236 54.315 19.236C53.562 19.236 53.005 19.618 52.645 20.382L51.946 19.989C52.382 18.985 53.18 18.482 54.337 18.482C55.407 18.482 56.117 18.886 56.466 19.683C56.586 19.967 56.641 20.284 56.641 20.644V24.412H55.811V23.385H55.8C55.32 24.139 54.665 24.51 53.835 24.51C53.256 24.51 52.775 24.346 52.415 24.029C52.055 23.702 51.88 23.287 51.88 22.795V22.73C51.88 22.151 52.109 21.736 52.568 21.463C53.038 21.19 53.573 21.048 54.184 21.048ZM55.8 21.955V21.747H54.173C53.507 21.736 52.765 21.965 52.732 22.73C52.732 23.374 53.256 23.756 53.988 23.756C54.512 23.756 54.948 23.593 55.287 23.254C55.626 22.915 55.8 22.49 55.8 21.955ZM60.479 24.455C59.376 24.455 58.83 23.942 58.83 22.905V19.334H57.749V18.58H58.83V16.899H59.671V18.58H61.145V19.334H59.671V22.883C59.671 23.429 59.988 23.702 60.621 23.702C60.85 23.702 61.025 23.691 61.145 23.658V24.368C60.96 24.422 60.73 24.455 60.479 24.455ZM62.378 16.495C62.378 16.134 62.662 15.851 63.011 15.851C63.372 15.851 63.655 16.134 63.655 16.495C63.655 16.844 63.372 17.128 63.011 17.128C62.662 17.128 62.378 16.844 62.378 16.495ZM63.448 18.581V24.412H62.585V18.581H63.448ZM64.659 18.581H65.598L67.596 23.472L69.627 18.581H70.533L68.044 24.412H67.137L64.659 18.581ZM76.697 21.758H71.979C72.012 22.326 72.231 22.806 72.624 23.189C73.017 23.571 73.497 23.756 74.065 23.756C74.884 23.756 75.572 23.287 75.91 22.588L76.544 23.003C76.052 23.964 75.124 24.51 74.076 24.51C73.235 24.51 72.536 24.215 71.968 23.636C71.401 23.047 71.117 22.326 71.117 21.485C71.117 20.677 71.39 19.978 71.936 19.378C72.482 18.777 73.159 18.482 73.956 18.482C74.829 18.482 75.507 18.766 75.987 19.323C76.467 19.88 76.708 20.59 76.708 21.474C76.708 21.605 76.708 21.704 76.697 21.758ZM71.99 21.037H75.845C75.725 19.945 75.048 19.225 73.956 19.225C73.465 19.225 73.028 19.399 72.656 19.76C72.285 20.109 72.067 20.535 71.99 21.037ZM83.442 16.244C82.918 16.244 82.47 16.571 82.47 17.478V18.581H83.999V19.323H82.47V24.412H81.618V19.323H80.537V18.581H81.618V17.499C81.618 16.189 82.328 15.49 83.409 15.49C83.617 15.49 83.835 15.523 84.053 15.599V16.32C83.901 16.265 83.693 16.244 83.442 16.244ZM85.15 18.58H85.99V19.738C86.394 18.897 87.126 18.493 87.869 18.493C88.01 18.493 88.109 18.493 88.152 18.504V19.41C88.01 19.399 87.901 19.388 87.825 19.388C87.191 19.388 86.733 19.607 86.438 20.033C86.143 20.459 86.001 20.961 86.001 21.561V24.411H85.15V18.58ZM91.672 24.51C90.831 24.51 90.11 24.215 89.532 23.636C88.953 23.058 88.669 22.348 88.669 21.518C88.669 20.655 88.953 19.935 89.532 19.356C90.11 18.777 90.831 18.482 91.694 18.482C92.535 18.482 93.244 18.777 93.823 19.356C94.402 19.935 94.697 20.633 94.697 21.474C94.697 22.337 94.402 23.058 93.823 23.636C93.244 24.215 92.524 24.51 91.672 24.51ZM91.694 23.756C92.305 23.756 92.808 23.538 93.212 23.101C93.616 22.664 93.823 22.14 93.823 21.518C93.823 20.895 93.616 20.349 93.212 19.902C92.808 19.454 92.294 19.225 91.672 19.225C91.05 19.225 90.547 19.443 90.143 19.88C89.739 20.317 89.543 20.852 89.543 21.474C89.543 22.097 89.739 22.643 90.143 23.09C90.547 23.538 91.071 23.756 91.694 23.756ZM101.012 24.412H100.172V20.994C100.172 19.978 99.669 19.247 98.665 19.247C98.173 19.247 97.78 19.432 97.485 19.793C97.191 20.153 97.049 20.59 97.049 21.092V24.412H96.197V18.581H97.038V19.596C97.529 18.843 98.086 18.471 98.916 18.471C99.8 18.471 100.423 18.864 100.783 19.64C101.285 18.864 101.973 18.482 102.836 18.482C104.201 18.482 104.987 19.41 104.987 20.808V24.412H104.135V21.016C104.135 19.967 103.644 19.258 102.629 19.258C102.137 19.258 101.744 19.432 101.449 19.782C101.155 20.12 101.012 20.546 101.012 21.059V24.412Z" fill="#1B1818"/>
<path d="M154.175 15.55H151.464C151.292 8.43202 145.472 2.71402 138.32 2.71402C131.168 2.71402 125.348 8.43202 125.176 15.55H122.485C122.647 6.99202 129.693 2.2508e-05 138.331 2.2508e-05C142.483 -0.00697749 146.47 1.61902 149.434 4.52802C152.398 7.43702 154.101 11.396 154.175 15.55Z" fill="#18484C"/>
<path d="M137.22 28.905V31.688C129.139 31.129 122.726 24.502 122.496 16.328H125.219C125.368 20.737 127.77 24.754 131.371 27.002C131.155 26.337 131.002 25.593 131.002 24.86V7.12305H133.722V18.143H136.441V20.866H133.722V24.86C133.722 26.537 134.776 27.985 136.198 28.654C136.519 28.802 136.866 28.887 137.22 28.905Z" fill="#96CA4C"/>
<path d="M154.183 16.199C154.065 22.14 150.687 27.279 145.767 29.902V25.404C145.767 25.275 145.758 25.161 145.758 25.032C145.758 22.721 143.851 20.866 141.542 20.866H137.217V18.144H140.785C143.093 18.144 144.971 16.305 144.971 13.995C144.971 11.684 143.093 9.84605 140.785 9.84605H134.497V7.12305H140.785C144.598 7.12305 147.702 10.191 147.702 14.009C147.702 16.117 146.755 17.98 145.266 19.247C146.868 20.271 148.098 21.644 148.228 24.497C150.56 21.904 151.467 18.403 151.467 16.199H154.183Z" fill="#96CA4C"/>
<path d="M124.099 35.285H122.997C122.98 35.285 122.963 35.279 122.949 35.269C122.935 35.258 122.925 35.243 122.92 35.226L122.57 33.999C122.566 33.987 122.566 33.974 122.568 33.962C122.57 33.949 122.575 33.938 122.583 33.928C122.59 33.918 122.6 33.91 122.611 33.904C122.623 33.899 122.635 33.896 122.647 33.896H126.853C126.871 33.896 126.888 33.902 126.902 33.913C126.916 33.923 126.926 33.938 126.931 33.955L127.269 35.183C127.272 35.195 127.273 35.208 127.27 35.22C127.268 35.232 127.263 35.243 127.255 35.253C127.248 35.263 127.238 35.271 127.227 35.277C127.216 35.282 127.204 35.285 127.191 35.285H125.844C125.822 35.285 125.802 35.294 125.787 35.309C125.772 35.324 125.763 35.344 125.763 35.366V39.918C125.763 39.939 125.755 39.96 125.74 39.975C125.724 39.99 125.704 39.999 125.683 39.999H124.26C124.249 39.999 124.239 39.997 124.229 39.993C124.219 39.989 124.21 39.983 124.203 39.975C124.195 39.968 124.189 39.959 124.185 39.949C124.181 39.939 124.179 39.929 124.179 39.918V35.366C124.179 35.344 124.171 35.324 124.156 35.309C124.141 35.294 124.12 35.285 124.099 35.285Z" fill="#333333"/>
<path d="M130.709 38.916H128.22C128.206 38.916 128.192 38.92 128.18 38.927C128.168 38.934 128.158 38.944 128.151 38.956L127.564 39.96C127.557 39.972 127.547 39.982 127.535 39.989C127.523 39.996 127.509 40 127.495 40H126.046C126.032 40 126.018 39.996 126.006 39.989C125.994 39.982 125.984 39.972 125.977 39.959C125.969 39.947 125.966 39.933 125.966 39.919C125.966 39.905 125.969 39.891 125.977 39.879L129.397 33.932C129.404 33.92 129.414 33.91 129.426 33.903C129.438 33.896 129.452 33.892 129.466 33.892C129.481 33.892 129.494 33.896 129.507 33.903C129.519 33.91 129.529 33.92 129.536 33.932L132.952 39.879C132.959 39.891 132.963 39.905 132.963 39.919C132.963 39.934 132.959 39.947 132.952 39.959C132.945 39.972 132.935 39.982 132.923 39.989C132.91 39.996 132.896 40 132.882 40H131.434C131.42 40 131.406 39.996 131.394 39.989C131.381 39.982 131.371 39.972 131.364 39.96L130.778 38.956C130.771 38.944 130.761 38.934 130.749 38.927C130.736 38.92 130.724 38.916 130.709 38.916ZM130.029 37.668L129.536 36.824C129.529 36.812 129.519 36.802 129.506 36.795C129.494 36.788 129.48 36.784 129.466 36.784C129.452 36.784 129.438 36.788 129.426 36.795C129.414 36.802 129.404 36.812 129.397 36.824L128.901 37.667C128.894 37.68 128.89 37.694 128.89 37.708C128.89 37.722 128.893 37.736 128.9 37.748C128.907 37.761 128.917 37.771 128.93 37.778C128.942 37.785 128.956 37.789 128.97 37.789H129.959C129.973 37.789 129.987 37.785 129.999 37.778C130.011 37.771 130.022 37.761 130.029 37.749C130.036 37.736 130.039 37.722 130.039 37.708C130.039 37.694 130.036 37.68 130.029 37.668Z" fill="#333333"/>
<path d="M136.894 39.999H133.32C133.299 39.999 133.278 39.99 133.263 39.975C133.248 39.96 133.239 39.939 133.239 39.918V33.98C133.239 33.959 133.248 33.939 133.263 33.923C133.278 33.908 133.299 33.9 133.32 33.9L134.743 33.896C134.753 33.896 134.764 33.898 134.774 33.902C134.783 33.906 134.792 33.912 134.8 33.92C134.807 33.927 134.813 33.936 134.817 33.946C134.821 33.956 134.823 33.966 134.823 33.977V38.525C134.823 38.546 134.832 38.566 134.847 38.582C134.862 38.597 134.883 38.605 134.904 38.605H137.268C137.281 38.605 137.293 38.608 137.305 38.614C137.316 38.62 137.326 38.628 137.333 38.638C137.341 38.648 137.346 38.66 137.348 38.672C137.35 38.685 137.349 38.697 137.345 38.709L136.971 39.941C136.966 39.958 136.956 39.972 136.942 39.983C136.928 39.993 136.911 39.999 136.894 39.999Z" fill="#333333"/>
<path d="M137.797 39.905V33.977C137.797 33.955 137.806 33.935 137.821 33.92C137.836 33.904 137.856 33.896 137.878 33.896H139.595C140.105 33.896 140.556 33.959 140.947 34.085C141.332 34.209 141.634 34.411 141.853 34.692C142.068 34.973 142.176 35.335 142.176 35.78C142.174 36.113 142.076 36.438 141.894 36.717C141.738 36.974 141.507 37.175 141.231 37.294C141.22 37.298 141.211 37.304 141.203 37.313C141.195 37.322 141.189 37.331 141.185 37.343C141.181 37.354 141.18 37.365 141.181 37.377C141.182 37.389 141.186 37.4 141.192 37.41L142.672 39.873C142.679 39.885 142.683 39.899 142.683 39.913C142.683 39.928 142.68 39.941 142.673 39.954C142.666 39.966 142.656 39.977 142.643 39.984C142.631 39.991 142.617 39.995 142.603 39.995H140.94C140.926 39.995 140.911 39.991 140.899 39.983C140.886 39.976 140.876 39.966 140.869 39.953L139.399 37.259H139.381V39.905C139.381 39.927 139.373 39.947 139.357 39.963C139.342 39.978 139.322 39.986 139.3 39.986H137.878C137.856 39.986 137.836 39.978 137.821 39.963C137.806 39.947 137.797 39.927 137.797 39.905ZM139.381 36.816C139.381 36.826 139.383 36.837 139.388 36.847C139.392 36.857 139.398 36.866 139.406 36.874C139.413 36.881 139.423 36.887 139.433 36.891C139.443 36.895 139.453 36.897 139.464 36.897C139.694 36.891 139.888 36.862 140.046 36.808C140.208 36.758 140.351 36.657 140.451 36.519C140.545 36.388 140.592 36.217 140.592 36.008C140.592 35.692 140.492 35.477 140.291 35.363C140.102 35.256 139.826 35.199 139.464 35.191C139.453 35.191 139.443 35.193 139.433 35.197C139.422 35.201 139.413 35.207 139.406 35.215C139.398 35.222 139.392 35.231 139.388 35.241C139.383 35.251 139.381 35.262 139.381 35.272V36.816Z" fill="#333333"/>
<path d="M147.388 34.326C147.848 34.59 148.232 34.97 148.499 35.429C148.771 35.892 148.913 36.42 148.91 36.957C148.914 37.493 148.772 38.02 148.499 38.48C148.23 38.941 147.844 39.322 147.382 39.587C146.919 39.852 146.395 39.99 145.862 39.988C145.328 39.989 144.804 39.851 144.341 39.586C143.877 39.322 143.491 38.941 143.221 38.48C142.947 38.02 142.805 37.493 142.81 36.957C142.806 36.42 142.948 35.892 143.221 35.429C143.49 34.971 143.875 34.591 144.336 34.326C144.801 34.061 145.327 33.922 145.862 33.922C146.397 33.922 146.923 34.061 147.388 34.326ZM145.044 35.486C144.796 35.644 144.592 35.861 144.449 36.118C144.306 36.375 144.229 36.663 144.226 36.957C144.226 37.249 144.303 37.537 144.45 37.79C144.59 38.051 144.795 38.271 145.044 38.431C145.287 38.589 145.57 38.672 145.86 38.672C146.149 38.672 146.433 38.589 146.676 38.431C146.925 38.27 147.131 38.05 147.274 37.79C147.418 37.536 147.493 37.249 147.493 36.957C147.493 36.665 147.418 36.378 147.274 36.123C147.132 35.865 146.928 35.646 146.68 35.486C146.436 35.329 146.152 35.245 145.862 35.245C145.571 35.244 145.287 35.328 145.044 35.486Z" fill="#333333"/>
<path d="M149.543 39.918V33.977C149.543 33.955 149.552 33.935 149.567 33.92C149.582 33.904 149.602 33.896 149.624 33.896H151.473C151.904 33.896 152.271 33.928 152.575 33.991C152.86 34.044 153.132 34.152 153.376 34.309C153.601 34.459 153.781 34.669 153.895 34.915C154.016 35.17 154.077 35.481 154.077 35.849C154.081 36.129 154.019 36.406 153.895 36.657C153.773 36.895 153.601 37.104 153.389 37.268C153.16 37.446 152.899 37.578 152.62 37.659C152.318 37.751 152.003 37.798 151.687 37.797H151.212C151.202 37.797 151.191 37.799 151.181 37.803C151.171 37.807 151.163 37.813 151.155 37.821C151.148 37.828 151.142 37.837 151.138 37.847C151.134 37.857 151.132 37.867 151.132 37.878V39.918C151.132 39.94 151.123 39.96 151.108 39.976C151.093 39.991 151.072 39.999 151.051 39.999H149.624C149.602 39.999 149.582 39.991 149.567 39.976C149.552 39.96 149.543 39.94 149.543 39.918ZM151.132 35.271V36.422C151.132 36.443 151.14 36.464 151.155 36.479C151.17 36.494 151.191 36.502 151.212 36.502H151.587C151.878 36.502 152.103 36.445 152.261 36.33C152.415 36.218 152.493 36.055 152.493 35.84C152.493 35.631 152.415 35.47 152.261 35.358C152.103 35.246 151.878 35.191 151.587 35.191H151.212C151.191 35.191 151.17 35.199 151.155 35.214C151.14 35.229 151.132 35.25 151.132 35.271Z" fill="#333333"/>
</g>
</g>
<defs>
<clipPath id="clip0_109_583">
<rect width="142" height="40" fill="white" transform="translate(13)"/>
</clipPath>
<clipPath id="clip1_109_583">
<rect width="142" height="40" fill="white" transform="translate(13)"/>
</clipPath>
</defs>
</svg>
