<svg width="236" height="141" viewBox="0 0 236 141" fill="none" xmlns="http://www.w3.org/2000/svg">
<g clip-path="url(#clip0_109_460)">
<path d="M185.935 81.2036C186.048 81.2654 186.15 81.3374 186.262 81.3992C183.524 82.9636 180.05 82.768 177.138 81.5639C174.226 80.3597 171.774 78.2499 169.506 76.0577C163.866 70.6235 158.972 64.438 154.742 57.8306C150.542 51.2849 146.169 43.6997 138.67 41.8369C133.622 40.5812 128.248 42.3515 123.855 45.1612C123.814 45.192 123.763 45.2126 123.722 45.2435C115.793 50.3586 113.913 61.2372 119.43 68.9356C121.045 71.1896 122.833 73.3097 124.835 75.2343C130.629 80.8125 138.455 84.6206 146.455 84.178C146.118 85.5777 144.575 86.2467 143.206 86.6481C128.381 90.9296 111.154 84.6823 102.449 71.8482C102.02 71.2204 101.519 70.5103 100.773 70.4177C100.027 70.3147 99.3634 70.8705 98.8116 71.3851C94.6736 75.2858 90.9136 79.5981 86.6223 83.3135C82.3208 87.0289 77.3551 90.1988 71.7968 91.2898C66.2386 92.3807 59.9958 91.0942 56.0518 87.0083C49.8601 80.5861 50.749 69.5943 53.191 61.7209C55.8373 53.1889 61.2525 45.5831 68.0981 39.9431C72.1238 36.6291 76.7318 33.8709 81.8099 32.749C86.8879 31.6169 92.4871 32.255 96.7988 35.1985C97.7694 35.8572 98.7503 36.8555 98.5766 38.0288C98.4847 38.6155 98.1168 39.1095 97.7592 39.5726C94.5101 43.7718 91.2712 47.9709 88.0221 52.17C85.4575 49.6485 82.2901 47.446 78.714 47.2916C73.9323 47.0755 69.7329 50.5542 66.8823 54.4342C62.4071 60.5271 59.9958 68.1328 60.1286 75.7077C60.1797 78.3734 60.7723 81.4815 63.9703 82.0476C64.8694 82.202 65.789 82.0888 66.6575 81.8212C70.4277 80.6479 73.4521 77.9617 76.1392 75.0902C87.6849 62.7296 94.3773 46.283 106.536 34.5399C113.801 27.5207 123.967 22.2512 133.745 24.6596C139.416 26.049 144.218 29.8467 148.203 34.1385C155.15 41.6001 160.116 50.6571 165.633 59.2509C171.079 67.7315 177.373 76.0371 185.966 81.2242L185.935 81.2036Z" fill="#111846"/>
<path d="M136.728 2.91258C145.699 10.9095 135.267 25.9049 124.478 18.9578C112.707 11.3829 126.205 -6.4737 136.728 2.91258Z" fill="#111846"/>
<path d="M86.2545 13.3899C99.3736 9.3245 99.6393 30.701 86.2749 26.7283C80.6043 25.0404 81.4625 14.8719 86.2545 13.3899Z" fill="#111846"/>
<path d="M31.3052 101.911V107.736H19.923V140.033H12.8832V107.736H1.44995V101.911H31.3154H31.3052Z" fill="black"/>
<path d="M41.1748 112.563C42.8708 112.563 44.424 112.831 45.8442 113.376C47.2644 113.922 48.4905 114.714 49.5225 115.764C50.5544 116.814 51.3513 118.09 51.9337 119.613C52.5161 121.136 52.8023 122.865 52.8023 124.821C52.8023 125.315 52.7818 125.727 52.741 126.046C52.7001 126.375 52.6182 126.622 52.5058 126.807C52.3935 126.993 52.2403 127.126 52.0462 127.198C51.852 127.281 51.6068 127.322 51.3105 127.322H34.7174C34.9115 130.101 35.6473 132.139 36.9449 133.435C38.2323 134.732 39.9488 135.391 42.074 135.391C43.1162 135.391 44.0254 135.267 44.7815 135.02C45.5376 134.773 46.2018 134.506 46.774 134.207C47.3462 133.909 47.8366 133.641 48.2657 133.394C48.6949 133.147 49.1036 133.024 49.5123 133.024C49.7779 133.024 50.0027 133.075 50.1968 133.178C50.391 133.281 50.5544 133.435 50.6975 133.631L52.5775 136.008C51.8623 136.852 51.055 137.562 50.1661 138.128C49.2772 138.705 48.3475 139.158 47.3768 139.497C46.4062 139.837 45.4252 140.084 44.4239 140.218C43.4226 140.362 42.452 140.434 41.5018 140.434C39.632 140.434 37.895 140.125 36.2908 139.497C34.6867 138.87 33.2869 137.954 32.1017 136.729C30.9165 135.504 29.9868 133.991 29.3023 132.19C28.6177 130.389 28.2805 128.3 28.2805 125.933C28.2805 124.09 28.5767 122.351 29.1693 120.725C29.7619 119.099 30.61 117.689 31.7237 116.484C32.8272 115.28 34.1861 114.323 35.78 113.623C37.3739 112.923 39.1825 112.574 41.1851 112.574L41.1748 112.563ZM41.3077 117.225C39.4277 117.225 37.9461 117.761 36.8835 118.831C35.8209 119.901 35.1363 121.425 34.84 123.39H46.9886C46.9886 122.546 46.8762 121.754 46.6514 121.003C46.4266 120.251 46.0791 119.603 45.6091 119.037C45.1391 118.471 44.5466 118.028 43.8314 117.709C43.1162 117.38 42.2783 117.225 41.3179 117.225H41.3077Z" fill="black"/>
<path d="M79.1017 140.033H76.1999C75.5869 140.033 75.1067 139.94 74.7593 139.755C74.4119 139.569 74.1462 139.199 73.9725 138.633L73.4004 136.708C72.7158 137.326 72.0517 137.861 71.3978 138.334C70.7438 138.797 70.0695 139.189 69.3645 139.508C68.6697 139.827 67.9238 140.063 67.1371 140.218C66.3504 140.372 65.4819 140.454 64.5215 140.454C63.3873 140.454 62.3451 140.3 61.3847 139.991C60.4243 139.683 59.5967 139.219 58.9121 138.602C58.2275 137.984 57.686 137.213 57.2978 136.297C56.9095 135.381 56.7256 134.31 56.7256 133.096C56.7256 132.077 56.9912 131.058 57.5225 130.07C58.0538 129.072 58.9428 128.176 60.1791 127.373C61.4154 126.571 63.0706 125.902 65.1243 125.377C67.1882 124.852 69.7425 124.584 72.7975 124.584V122.989C72.7975 121.167 72.4195 119.819 71.6634 118.934C70.9073 118.059 69.8038 117.617 68.353 117.617C67.3006 117.617 66.4321 117.74 65.7373 117.987C65.0425 118.234 64.4295 118.512 63.9186 118.821C63.4078 119.13 62.9275 119.407 62.4882 119.654C62.0488 119.901 61.5686 120.025 61.0475 120.025C60.6082 120.025 60.2404 119.912 59.9236 119.685C59.6069 119.459 59.3617 119.171 59.1675 118.841L57.9925 116.762C61.0782 113.911 64.8075 112.491 69.1704 112.491C70.7438 112.491 72.1436 112.749 73.3697 113.273C74.5958 113.788 75.638 114.508 76.4962 115.435C77.3545 116.361 77.9982 117.462 78.4478 118.738C78.8973 120.025 79.1119 121.425 79.1119 122.958V140.043L79.1017 140.033ZM66.5343 135.967C67.1984 135.967 67.8115 135.905 68.3632 135.782C68.9251 135.658 69.4462 135.483 69.9469 135.236C70.4475 134.989 70.9278 134.691 71.3875 134.341C71.8473 133.991 72.3173 133.569 72.7873 133.085V128.557C70.9073 128.557 69.3236 128.68 68.0669 128.917C66.7999 129.154 65.7884 129.463 65.0221 129.833C64.2558 130.204 63.7041 130.636 63.3873 131.13C63.0604 131.624 62.9071 132.169 62.9071 132.746C62.9071 133.899 63.2443 134.722 63.9186 135.216C64.593 135.71 65.4717 135.957 66.5547 135.957L66.5343 135.967Z" fill="black"/>
<path d="M85.4575 140.032V112.985H89.4116C90.2494 112.985 90.8011 113.376 91.0566 114.169L91.4755 116.176C91.9455 115.651 92.4359 115.167 92.957 114.725C93.4781 114.282 94.0196 113.911 94.602 113.592C95.1844 113.273 95.8179 113.026 96.482 112.841C97.1564 112.656 97.892 112.563 98.6992 112.563C100.395 112.563 101.785 113.026 102.878 113.942C103.971 114.858 104.789 116.093 105.33 117.617C105.749 116.721 106.27 115.949 106.904 115.311C107.527 114.673 108.222 114.148 108.968 113.747C109.714 113.345 110.521 113.047 111.359 112.851C112.196 112.656 113.055 112.563 113.913 112.563C115.395 112.563 116.713 112.79 117.867 113.253C119.022 113.706 119.992 114.375 120.769 115.26C121.556 116.135 122.148 117.215 122.557 118.481C122.966 119.747 123.17 121.198 123.17 122.835V140.053H116.702V122.835C116.702 121.116 116.324 119.819 115.578 118.944C114.822 118.069 113.729 117.637 112.278 117.637C111.614 117.637 111.001 117.75 110.429 117.977C109.857 118.203 109.366 118.533 108.937 118.965C108.508 119.397 108.171 119.932 107.926 120.591C107.68 121.25 107.558 121.991 107.558 122.835V140.053H101.07V122.835C101.07 121.023 100.712 119.706 99.9866 118.883C99.2611 118.059 98.1985 117.647 96.7783 117.647C95.8485 117.647 94.9903 117.884 94.1729 118.347C93.3657 118.81 92.6096 119.449 91.9046 120.262V140.063H85.437L85.4575 140.032Z" fill="black"/>
<path d="M140.631 112.563C142.327 112.563 143.88 112.831 145.3 113.376C146.72 113.922 147.946 114.714 148.978 115.764C150.01 116.814 150.807 118.09 151.389 119.613C151.972 121.136 152.258 122.865 152.258 124.821C152.258 125.315 152.238 125.727 152.197 126.046C152.156 126.375 152.074 126.622 151.962 126.807C151.849 126.993 151.696 127.126 151.502 127.198C151.308 127.281 151.063 127.322 150.766 127.322H134.173C134.367 130.101 135.103 132.139 136.401 133.435C137.688 134.732 139.404 135.391 141.53 135.391C142.572 135.391 143.481 135.267 144.237 135.02C144.993 134.773 145.658 134.506 146.23 134.207C146.802 133.909 147.292 133.641 147.721 133.394C148.151 133.147 148.559 133.024 148.968 133.024C149.234 133.024 149.458 133.075 149.653 133.178C149.847 133.281 150.01 133.435 150.153 133.631L152.033 136.008C151.318 136.852 150.511 137.562 149.622 138.128C148.733 138.705 147.803 139.158 146.833 139.497C145.862 139.837 144.881 140.084 143.88 140.218C142.878 140.362 141.908 140.434 140.958 140.434C139.088 140.434 137.351 140.125 135.747 139.497C134.143 138.87 132.743 137.954 131.558 136.729C130.372 135.504 129.443 133.991 128.758 132.19C128.073 130.389 127.736 128.3 127.736 125.933C127.736 124.09 128.033 122.351 128.625 120.725C129.218 119.099 130.066 117.689 131.179 116.484C132.283 115.28 133.642 114.323 135.236 113.623C136.83 112.923 138.638 112.574 140.641 112.574L140.631 112.563ZM140.763 117.225C138.883 117.225 137.402 117.761 136.339 118.831C135.277 119.901 134.592 121.425 134.296 123.39H146.444C146.444 122.546 146.332 121.754 146.107 121.003C145.882 120.251 145.535 119.603 145.065 119.037C144.595 118.471 144.002 118.028 143.287 117.709C142.572 117.38 141.734 117.225 140.774 117.225H140.763Z" fill="black"/>
<path d="M157.521 140.032V112.985H161.475C162.313 112.985 162.865 113.376 163.12 114.169L163.57 116.31C164.111 115.743 164.683 115.239 165.286 114.776C165.889 114.323 166.522 113.922 167.197 113.592C167.871 113.263 168.586 113.006 169.353 112.831C170.119 112.656 170.957 112.563 171.866 112.563C173.327 112.563 174.635 112.81 175.769 113.315C176.903 113.819 177.853 114.519 178.61 115.424C179.366 116.33 179.948 117.411 180.336 118.666C180.725 119.922 180.929 121.311 180.929 122.814V140.032H174.461V122.814C174.461 121.167 174.083 119.881 173.327 118.975C172.571 118.069 171.427 117.617 169.915 117.617C168.801 117.617 167.748 117.874 166.778 118.378C165.797 118.893 164.877 119.582 164.009 120.457V140.022H157.541L157.521 140.032Z" fill="black"/>
<path d="M206.144 118.697C205.95 118.944 205.766 119.14 205.582 119.274C205.398 119.418 205.133 119.49 204.785 119.49C204.438 119.49 204.132 119.387 203.815 119.191C203.498 118.985 203.13 118.759 202.691 118.502C202.252 118.244 201.741 118.018 201.138 117.812C200.535 117.606 199.789 117.514 198.9 117.514C197.766 117.514 196.775 117.72 195.917 118.131C195.058 118.543 194.353 119.14 193.781 119.912C193.219 120.684 192.79 121.62 192.514 122.721C192.238 123.823 192.095 125.068 192.095 126.447C192.095 127.826 192.249 129.175 192.555 130.296C192.862 131.418 193.301 132.365 193.873 133.127C194.445 133.888 195.15 134.475 195.968 134.866C196.785 135.257 197.715 135.463 198.737 135.463C199.758 135.463 200.596 135.339 201.24 135.082C201.873 134.825 202.415 134.547 202.854 134.238C203.294 133.929 203.672 133.652 203.988 133.394C204.315 133.137 204.673 133.013 205.072 133.013C205.593 133.013 205.991 133.219 206.247 133.621L208.106 135.998C207.391 136.842 206.614 137.552 205.777 138.118C204.939 138.695 204.07 139.147 203.171 139.487C202.272 139.827 201.342 140.074 200.382 140.207C199.421 140.352 198.471 140.424 197.531 140.424C195.876 140.424 194.313 140.115 192.841 139.487C191.38 138.859 190.093 137.954 189.01 136.76C187.917 135.566 187.058 134.104 186.415 132.365C185.781 130.636 185.464 128.66 185.464 126.447C185.464 124.461 185.75 122.619 186.312 120.92C186.874 119.222 187.712 117.761 188.816 116.515C189.919 115.28 191.278 114.303 192.903 113.603C194.527 112.903 196.397 112.553 198.502 112.553C200.607 112.553 202.262 112.882 203.774 113.531C205.286 114.179 206.635 115.116 207.84 116.33L206.134 118.708L206.144 118.697Z" fill="black"/>
<path d="M223.34 112.563C225.036 112.563 226.589 112.831 228.01 113.376C229.43 113.922 230.657 114.714 231.689 115.764C232.721 116.814 233.518 118.09 234.1 119.613C234.683 121.136 234.968 122.865 234.968 124.821C234.968 125.315 234.947 125.727 234.906 126.046C234.865 126.375 234.785 126.622 234.672 126.807C234.56 126.993 234.407 127.126 234.213 127.198C234.018 127.281 233.773 127.322 233.477 127.322H216.884C217.078 130.101 217.814 132.139 219.111 133.435C220.399 134.732 222.114 135.391 224.239 135.391C225.282 135.391 226.192 135.267 226.948 135.02C227.704 134.773 228.368 134.506 228.94 134.207C229.513 133.909 230.002 133.641 230.431 133.394C230.86 133.147 231.27 133.024 231.679 133.024C231.944 133.024 232.169 133.075 232.363 133.178C232.557 133.281 232.72 133.435 232.863 133.631L234.744 136.008C234.029 136.852 233.222 137.562 232.333 138.128C231.444 138.705 230.513 139.158 229.542 139.497C228.572 139.837 227.592 140.084 226.59 140.218C225.589 140.362 224.617 140.434 223.667 140.434C221.797 140.434 220.062 140.125 218.457 139.497C216.853 138.87 215.452 137.954 214.267 136.729C213.082 135.504 212.152 133.991 211.468 132.19C210.783 130.389 210.446 128.3 210.446 125.933C210.446 124.09 210.742 122.351 211.335 120.725C211.927 119.099 212.775 117.689 213.889 116.484C214.993 115.28 216.353 114.323 217.947 113.623C219.54 112.923 221.348 112.574 223.35 112.574L223.34 112.563ZM223.473 117.225C221.593 117.225 220.113 117.761 219.05 118.831C217.987 119.901 217.303 121.425 217.006 123.39H229.154C229.154 122.546 229.043 121.754 228.818 121.003C228.593 120.251 228.246 119.603 227.776 119.037C227.306 118.471 226.713 118.028 225.998 117.709C225.283 117.38 224.445 117.225 223.484 117.225H223.473Z" fill="black"/>
</g>
<defs>
<clipPath id="clip0_109_460">
<rect width="235" height="141" fill="white" transform="translate(0.5)"/>
</clipPath>
</defs>
</svg>
