<svg width="33" height="40" viewBox="0 0 33 40" fill="none" xmlns="http://www.w3.org/2000/svg">
<mask id="mask0_2_2" style="mask-type:luminance" maskUnits="userSpaceOnUse" x="0" y="0" width="33" height="32">
<path d="M32.2821 0H0.510872V31.7647H32.2821V0Z" fill="white"/>
</mask>
<g mask="url(#mask0_2_2)">
<path d="M32.0794 15.7681H29.3766C29.242 12.3495 27.8043 9.11634 25.3648 6.74575C22.9251 4.37517 19.6729 3.05119 16.2894 3.05119C12.9059 3.05119 9.65368 4.37517 7.21401 6.74575C4.77445 9.11634 3.33674 12.3495 3.20225 15.7681H0.510872C0.581592 11.5824 2.27558 7.59228 5.22807 4.65748C8.18055 1.72269 12.155 0.0781251 16.2952 0.078125C20.4353 0.078125 24.4097 1.72269 27.3622 4.65748C30.3147 7.59228 32.0087 11.5824 32.0794 15.7681Z" fill="#18484C"/>
<path d="M15.1878 29.2066V32C11.284 31.7223 7.6215 29.9878 4.91154 27.133C2.20145 24.2784 0.637133 20.5074 0.522404 16.552H3.23437C3.31403 18.7112 3.91392 20.8181 4.98202 22.6896C6.05012 24.5611 7.55395 26.1406 9.36303 27.2907C9.13016 26.5958 9.0059 25.8686 8.99472 25.1351V7.28681H11.7044V18.3771H14.4119V21.117H11.7044V25.142C11.7179 25.9487 11.9565 26.735 12.3928 27.4105C12.829 28.086 13.4452 28.6231 14.1701 28.9598C14.4904 29.1089 14.8357 29.1949 15.1878 29.2136" fill="#96CA4D"/>
<path d="M32.084 16.5521C32.0047 19.3743 31.1875 22.1248 29.7155 24.5238C28.2435 26.923 26.1692 28.8849 23.7037 30.21V25.6823C23.7037 25.5519 23.7037 25.4494 23.7037 25.3098C23.6947 24.1916 23.2475 23.1227 22.4604 22.3373C21.6732 21.5519 20.6103 21.1139 19.5044 21.1195H15.1876V18.3772H18.7401C19.2905 18.3904 19.838 18.2921 20.3503 18.0882C20.8627 17.8843 21.3295 17.5788 21.7234 17.1899C22.1173 16.8008 22.4303 16.3362 22.6441 15.823C22.8578 15.3099 22.9678 14.7588 22.9678 14.2021C22.9678 13.6454 22.8578 13.0942 22.6441 12.5812C22.4303 12.068 22.1173 11.6034 21.7234 11.2144C21.3295 10.8254 20.8627 10.5199 20.3503 10.316C19.838 10.1121 19.2905 10.0138 18.7401 10.027H12.4779V7.287H18.7401C20.1463 7.27631 21.5217 7.70417 22.6788 8.51232C23.836 9.32046 24.7186 10.4696 25.2066 11.8033C25.6945 13.137 25.7641 14.5902 25.4058 15.9653C25.0474 17.3404 24.2787 18.5703 23.2041 19.4877C24.7996 20.5189 26.0267 21.8994 26.1556 24.7697C28.4326 22.209 29.3443 18.7777 29.3788 16.5521H32.0817" fill="#96CA4B"/>
</g>
<path d="M1.98775 35.4593H0.926946C0.910001 35.4592 0.89353 35.4537 0.879998 35.4435C0.866348 35.4333 0.856462 35.4191 0.851638 35.4028L0.514861 34.2218C0.51086 34.2101 0.509804 34.1977 0.511804 34.1855C0.513805 34.1734 0.518746 34.1619 0.526159 34.1521C0.533573 34.1422 0.543336 34.1345 0.554515 34.1293C0.565576 34.1241 0.577932 34.1217 0.59017 34.1224H4.64253C4.65983 34.1219 4.67666 34.1273 4.69031 34.1377C4.70408 34.1481 4.71384 34.1628 4.71796 34.1797L5.04191 35.3584C5.04567 35.37 5.04661 35.3824 5.04449 35.3944C5.04249 35.4065 5.03755 35.4178 5.03014 35.4275C5.02272 35.4373 5.01307 35.4451 5.00201 35.4501C4.99095 35.4553 4.97871 35.4577 4.96648 35.4571H3.66845C3.64845 35.4571 3.62938 35.465 3.61514 35.4791C3.60102 35.4933 3.59314 35.5124 3.59314 35.5324V39.9131C3.59314 39.9331 3.58514 39.9522 3.57102 39.9664C3.5569 39.9805 3.53772 39.9885 3.51783 39.9885H2.14284C2.12295 39.9885 2.10378 39.9805 2.08966 39.9664C2.07554 39.9522 2.06753 39.9331 2.06753 39.9131V35.537C2.06788 35.5265 2.066 35.516 2.06212 35.5062C2.05823 35.4966 2.05224 35.4878 2.04471 35.4805C2.03729 35.4732 2.02823 35.4675 2.01846 35.4639C2.00858 35.4602 1.99811 35.4587 1.98775 35.4593Z" fill="#333333"/>
<path d="M8.76031 38.9566H6.363C6.34946 38.9568 6.33628 38.9605 6.32452 38.9672C6.31287 38.9739 6.30298 38.9836 6.29592 38.9951L5.73169 39.9614C5.72498 39.9733 5.71533 39.9831 5.70345 39.9899C5.69168 39.9966 5.67827 40.0001 5.66462 39.9999H4.26645C4.25233 40.0008 4.23844 39.9978 4.22597 39.9912C4.21361 39.9846 4.20326 39.9746 4.1962 39.9625C4.18914 39.9504 4.18573 39.9365 4.18608 39.9225C4.18655 39.9085 4.1908 39.8948 4.19856 39.8831L7.49382 34.1586C7.50018 34.1463 7.50982 34.1359 7.52159 34.1287C7.53347 34.1215 7.54701 34.1177 7.56089 34.1177C7.57478 34.1177 7.5883 34.1215 7.60019 34.1287C7.61196 34.1359 7.62161 34.1463 7.62796 34.1586L10.9186 39.8831C10.9262 39.8947 10.9303 39.9083 10.9306 39.922C10.931 39.9359 10.9275 39.9496 10.9205 39.9616C10.9136 39.9736 10.9036 39.9834 10.8913 39.99C10.8792 39.9966 10.8654 39.9998 10.8517 39.9991H9.45869C9.44504 39.9993 9.43162 39.9959 9.41986 39.9892C9.40797 39.9824 9.3982 39.9725 9.39161 39.9607L8.82726 38.9943C8.82056 38.9826 8.81079 38.973 8.7989 38.9663C8.78714 38.9597 8.77384 38.9564 8.76031 38.9566ZM8.10865 37.756L7.6309 36.9448C7.62466 36.9325 7.61502 36.9221 7.60325 36.9148C7.59136 36.9077 7.57771 36.9038 7.56395 36.9038C7.55006 36.9038 7.53642 36.9077 7.52465 36.9148C7.51277 36.9221 7.50323 36.9325 7.49687 36.9448L7.01925 37.756C7.01136 37.7677 7.00689 37.7812 7.0063 37.7952C7.00571 37.8092 7.00901 37.8231 7.01595 37.8353C7.02278 37.8476 7.03302 37.8576 7.04526 37.8644C7.05761 37.8711 7.0715 37.8743 7.0855 37.8736H8.03781C8.05217 37.8752 8.06676 37.8727 8.0797 37.8664C8.09264 37.8599 8.10359 37.85 8.111 37.8375C8.11853 37.8252 8.1223 37.8108 8.12183 37.7965C8.12136 37.782 8.11677 37.7679 8.10865 37.756Z" fill="#333333"/>
<path d="M15.2556 39.9975H11.8126C11.7928 39.9975 11.7736 39.9895 11.7595 39.9754C11.7453 39.9613 11.7373 39.9421 11.7373 39.9222V34.2067C11.7373 34.1868 11.7453 34.1676 11.7595 34.1535C11.7736 34.1394 11.7928 34.1314 11.8126 34.1314H13.183C13.203 34.1314 13.2222 34.1394 13.2363 34.1535C13.2505 34.1676 13.2585 34.1868 13.2585 34.2067V38.5829C13.2585 38.6029 13.2663 38.6221 13.2805 38.6362C13.2946 38.6504 13.3138 38.6582 13.3338 38.6582H15.612C15.6244 38.6575 15.6367 38.6599 15.6479 38.6652C15.6592 38.6703 15.669 38.6783 15.6764 38.6882C15.6839 38.6981 15.6887 38.7098 15.6906 38.722C15.6926 38.7342 15.6914 38.7467 15.6873 38.7585L15.3271 39.944C15.3221 39.9591 15.3124 39.9722 15.2997 39.9819C15.2869 39.9914 15.2716 39.9968 15.2556 39.9975Z" fill="#333333"/>
<path d="M16.3951 39.9076V34.2028C16.3951 34.1828 16.4029 34.1636 16.4171 34.1495C16.4312 34.1354 16.4504 34.1275 16.4704 34.1275H18.1278C18.5671 34.1198 19.005 34.1802 19.4258 34.3067C19.7699 34.4073 20.0746 34.6111 20.299 34.8905C20.5065 35.1612 20.6102 35.5101 20.6102 35.9375C20.6087 36.2587 20.5142 36.5726 20.3382 36.8413C20.1884 37.0879 19.9653 37.2814 19.7001 37.3949C19.6894 37.3987 19.6797 37.4048 19.6717 37.4129C19.6637 37.4209 19.6576 37.4307 19.654 37.4414C19.6503 37.4521 19.649 37.4635 19.6504 37.4748C19.6517 37.4861 19.6556 37.4968 19.6616 37.5065L21.0878 39.876C21.0959 39.8878 21.1006 39.9014 21.1013 39.9156C21.1019 39.9299 21.0986 39.944 21.0915 39.9563C21.0845 39.9687 21.0741 39.9788 21.0617 39.9855C21.0491 39.9922 21.0349 39.9953 21.0207 39.9944H19.4198C19.4057 39.9946 19.3918 39.9909 19.3797 39.9838C19.3675 39.9766 19.3578 39.9661 19.3513 39.9536L17.9349 37.3618H17.9176V39.9076C17.9176 39.9276 17.9096 39.9468 17.8955 39.9609C17.8814 39.9751 17.8622 39.9831 17.8423 39.9831H16.4704C16.4504 39.9831 16.4312 39.9751 16.4171 39.9609C16.4029 39.9468 16.3951 39.9276 16.3951 39.9076ZM17.9205 36.9347C17.9205 36.9451 17.9227 36.9552 17.9268 36.9647C17.9308 36.9741 17.9368 36.9826 17.9442 36.9896C17.9517 36.9967 17.9606 37.0021 17.9702 37.0056C17.9799 37.0092 17.9902 37.0107 18.0004 37.0101C18.1906 37.0099 18.3796 36.9809 18.5609 36.9242C18.7178 36.8767 18.8547 36.7794 18.9512 36.6471C19.0472 36.5012 19.0947 36.3288 19.0868 36.1544C19.0868 35.8532 18.9904 35.6462 18.7975 35.5338C18.6152 35.4333 18.3496 35.3784 18.0004 35.3688C17.9902 35.3682 17.9799 35.3696 17.9702 35.3732C17.9606 35.3767 17.9517 35.3821 17.9442 35.3892C17.9368 35.3962 17.9308 35.4048 17.9268 35.4142C17.9227 35.4236 17.9205 35.4339 17.9205 35.4441V36.9347Z" fill="#333333"/>
<path d="M25.755 34.5379C26.1985 34.7918 26.5674 35.1578 26.8247 35.5992C27.0876 36.0444 27.2246 36.5525 27.221 37.0694C27.2256 37.5851 27.0885 38.0921 26.8247 38.5352C26.5655 38.9784 26.1945 39.3455 25.7486 39.6001C25.3028 39.8547 24.7978 39.9878 24.2844 39.9859C23.7706 39.9869 23.2655 39.8535 22.8192 39.5991C22.3729 39.3446 22.0009 38.9779 21.7403 38.5352C21.477 38.0919 21.3403 37.5849 21.3448 37.0694C21.3414 36.5526 21.4781 36.0446 21.7403 35.5992C22 35.158 22.3703 34.7922 22.8146 34.5379C23.2623 34.2835 23.7686 34.1498 24.2836 34.1498C24.7987 34.1498 25.3049 34.2835 25.7527 34.5379H25.755ZM23.4949 35.6541C23.2566 35.8062 23.0599 36.0152 22.9227 36.2624C22.7855 36.5094 22.7121 36.7868 22.7091 37.0694C22.7093 37.3508 22.7835 37.6273 22.9245 37.8708C23.0599 38.122 23.2569 38.3345 23.4971 38.4885C23.7314 38.6395 24.0041 38.7198 24.2829 38.7198C24.5615 38.7198 24.8344 38.6395 25.0686 38.4885C25.3092 38.3339 25.5073 38.1215 25.6449 37.8708C25.7837 37.6264 25.8566 37.3501 25.8566 37.0691C25.8566 36.788 25.7837 36.5118 25.6449 36.2673C25.5084 36.0181 25.3116 35.8073 25.0724 35.6541C24.8375 35.5027 24.5639 35.4221 24.2844 35.4221C24.005 35.4209 23.7313 35.5016 23.4971 35.6541H23.4949Z" fill="#333333"/>
<path d="M27.9768 39.9204V34.2027C27.9768 34.1827 27.9847 34.1635 27.999 34.1494C28.0131 34.1353 28.0321 34.1274 28.0521 34.1274H29.8362C30.1919 34.1224 30.5472 34.1528 30.897 34.2185C31.1715 34.2698 31.4335 34.3739 31.6684 34.5251C31.886 34.6692 32.0593 34.8711 32.1686 35.1081C32.2931 35.3908 32.353 35.6978 32.3441 36.0067C32.3485 36.2764 32.2883 36.5431 32.1686 36.7847C32.0514 37.0139 31.8853 37.2145 31.6819 37.3722C31.461 37.5436 31.2094 37.6714 30.9406 37.7488C30.6493 37.8374 30.3464 37.8821 30.0418 37.8814H29.5846C29.5646 37.8814 29.5454 37.8893 29.5313 37.9035C29.5172 37.9176 29.5092 37.9367 29.5092 37.9567V39.9204C29.5092 39.9404 29.5013 39.9595 29.4871 39.9736C29.473 39.9878 29.4538 39.9956 29.4338 39.9956H28.0544C28.0444 39.996 28.0343 39.9942 28.025 39.9906C28.0156 39.9869 28.007 39.9815 27.9997 39.9745C27.9925 39.9674 27.9867 39.9591 27.9828 39.9498C27.9788 39.9405 27.9768 39.9305 27.9768 39.9204ZM29.5047 35.4485V36.5558C29.5047 36.5758 29.5126 36.5949 29.5268 36.6091C29.5409 36.6232 29.56 36.6311 29.58 36.6311H29.9409C30.2221 36.6311 30.4384 36.5759 30.5895 36.4654C30.6637 36.412 30.7234 36.3409 30.7628 36.2585C30.8024 36.1761 30.8205 36.0851 30.8155 35.9939C30.8199 35.9038 30.8014 35.814 30.762 35.7329C30.7225 35.6519 30.6631 35.582 30.5895 35.5299C30.4389 35.4219 30.2226 35.3682 29.9409 35.3687H29.58C29.5697 35.3687 29.5595 35.3707 29.5501 35.3748C29.5407 35.3788 29.5321 35.3848 29.525 35.3924C29.518 35.3998 29.5126 35.4086 29.509 35.4184C29.5055 35.428 29.5041 35.4382 29.5047 35.4485Z" fill="#333333"/>
</svg>
